#!OML:ASF E:\acrobat2\Project_11_07_03\Capture day 1\Session 1\Acrobat.ASF
:FULLY-SPECIFIED
:DEGREES
473
root 10.3593 8.37764 -9.29221 175.704 -0.192075 -179.657
lowerback 31.5501 3.3487 -2.06578
upperback 13.0733 -0.423164 -0.755646
thorax -2.45531 -1.92551 0.556767
lowerneck -5.42662 -3.53053 -2.03902
upperneck 0.725408 -4.72016 4.43677
head 1.31574 -2.30725 1.60427
rclavicle 1.51076e-014 2.90226e-014
rhumerus 23.7701 17.1359 -62.0692
rradius 40.5901
rwrist 1.01022
rhand -15.3941 -392.471
rfingers 7.12502
rthumb 10.7846 297.826
lclavicle 1.51076e-014 2.90226e-014
lhumerus 48.1126 -24.7045 39.3324
lradius 29.2694
lwrist -11.4227
lhand -18.7664 -377.559
lfingers 7.12502
lthumb 7.53059 12.2865
rfemur -98.8409 0.360167 27.6978
rtibia 48.3728
rfoot 150.095 5.28296
rtoes 12.5954
lfemur -97.1543 2.7803 -29.2829
ltibia 46.3605
lfoot -181.537 26.2457
ltoes 52.4767
474
root 10.3505 8.60344 -9.36465 176.815 -0.428806 -179.745
lowerback 30.8824 3.22061 -2.21263
upperback 12.9091 -0.464757 -0.810323
thorax -2.35002 -1.88887 0.586628
lowerneck -5.02239 -3.60535 -1.9912
upperneck 0.266939 -4.81825 4.51598
head 1.10379 -2.36644 1.62665
rclavicle 1.15295e-014 2.46493e-014
rhumerus 22.8048 17.845 -61.8938
rradius 41.3219
rwrist 0.954322
rhand -15.0377 -392.683
rfingers 7.12502
rthumb 11.1284 297.632
lclavicle 1.15295e-014 2.46493e-014
lhumerus 48.2438 -25.1369 39.0259
lradius 29.4047
lwrist -11.2159
lhand -18.2652 -377.33
lfingers 7.12502
lthumb 8.01442 12.4985
rfemur -98.1715 0.105802 27.7743
rtibia 49.5704
rfoot 149.492 5.79843
rtoes 13.3686
lfemur -96.4028 2.62517 -29.009
ltibia 47.7181
lfoot -180.932 26.6482
ltoes 52.1267
475
root 10.3428 8.82125 -9.43924 178.067 -0.694245 -179.847
lowerback 30.0249 3.05382 -2.33096
upperback 12.679 -0.498745 -0.878015
thorax -2.23087 -1.83009 0.581808
lowerneck -4.83978 -3.68044 -1.88694
upperneck 0.0680205 -4.92189 4.54
head 1.01032 -2.42289 1.61727
rclavicle -2.8625e-014 -5.20816e-014
rhumerus 21.6646 18.584 -61.6972
rradius 42.082
rwrist 0.875413
rhand -15.0082 -392.566
rfingers 7.12502
rthumb 11.1569 297.751
lclavicle -2.8625e-014 -5.20816e-014
lhumerus 48.3427 -25.5998 38.8079
lradius 29.5077
lwrist -11.2539
lhand -17.8737 -377.08
lfingers 7.12502
lthumb 8.39219 12.7337
rfemur -97.7646 -0.160907 27.8586
rtibia 50.7701
rfoot 149.022 6.48165
rtoes 13.1679
lfemur -95.86 2.39114 -28.7068
ltibia 49.0142
lfoot -179.514 26.9536
ltoes 52.5564
476
root 10.33 9.04583 -9.50196 179.161 -0.729654 -179.82
lowerback 29.5413 2.93771 -2.34662
upperback 12.4005 -0.482178 -0.93006
thorax -2.32946 -1.75235 0.528102
lowerneck -4.87769 -3.71408 -1.82087
upperneck -0.0146503 -4.9695 4.52518
head 0.989743 -2.44831 1.59959
rclavicle 1.27222e-014 1.31198e-014
rhumerus 20.7611 19.4319 -61.5177
rradius 42.5845
rwrist 0.716318
rhand -14.7649 -392.575
rfingers 7.12502
rthumb 11.3914 297.754
lclavicle 1.27222e-014 1.31198e-014
lhumerus 48.2678 -26.0457 38.6691
lradius 29.5954
lwrist -11.3832
lhand -17.6339 -376.715
lfingers 7.12502
lthumb 8.62362 13.0885
rfemur -97.0749 -0.254256 28.009
rtibia 52.1297
rfoot 148.613 6.94425
rtoes 13.5097
lfemur -95.1672 2.41775 -28.2955
ltibia 50.4096
lfoot -178.574 27.1124
ltoes 52.7299
477
root 10.3193 9.26869 -9.5662 180.198 -0.865171 -179.772
lowerback 29.0238 2.77064 -2.39911
upperback 12.1545 -0.549789 -0.951738
thorax -2.37116 -1.72412 0.552543
lowerneck -4.79606 -3.72734 -1.85701
upperneck -0.250785 -4.98322 4.57164
head 0.904226 -2.46031 1.62324
rclavicle 1.27222e-014 2.0276e-014
rhumerus 19.9043 20.3039 -61.5489
rradius 42.9935
rwrist 0.690634
rhand -14.3292 -392.732
rfingers 7.12502
rthumb 11.8117 297.621
lclavicle 1.27222e-014 2.0276e-014
lhumerus 48.031 -26.4244 38.5572
lradius 29.6585
lwrist -11.3842
lhand -17.4191 -376.377
lfingers 7.12502
lthumb 8.8309 13.4184
rfemur -96.3575 -0.420917 28.133
rtibia 53.4558
rfoot 148.239 7.50726
rtoes 12.4554
lfemur -94.4114 2.38268 -27.8626
ltibia 51.8389
lfoot -177.713 27.3995
ltoes 52.5775
478
root 10.3119 9.48756 -9.6372 181.089 -1.09426 -179.717
lowerback 28.4072 2.58882 -2.39582
upperback 12.0281 -0.652956 -0.985029
thorax -2.22941 -1.7288 0.536994
lowerneck -4.66407 -3.76999 -2.03091
upperneck -0.555409 -5.03517 4.92696
head 0.804636 -2.49125 1.77047
rclavicle -1.23246e-014 -3.1408e-014
rhumerus 18.9684 21.0609 -61.7742
rradius 43.3766
rwrist 0.665003
rhand -14.006 -392.839
rfingers 7.12502
rthumb 12.1233 297.532
lclavicle -1.23246e-014 -3.1408e-014
lhumerus 47.8167 -26.7111 38.4285
lradius 29.7059
lwrist -11.5854
lhand -17.3397 -376.029
lfingers 7.12502
lthumb 8.90758 13.7627
rfemur -95.483 -0.689094 28.2293
rtibia 54.9219
rfoot 148.119 7.96628
rtoes 11.8384
lfemur -93.5463 2.27201 -27.4256
ltibia 53.1798
lfoot -175.748 27.6268
ltoes 53.4928
479
root 10.3021 9.70612 -9.70557 181.975 -1.1579 -179.826
lowerback 27.8227 2.49269 -2.56107
upperback 11.8436 -0.683412 -1.04716
thorax -2.16701 -1.69818 0.566736
lowerneck -4.49904 -3.83496 -2.08055
upperneck -0.83485 -5.11864 5.09297
head 0.698668 -2.53947 1.8355
rclavicle -1.19271e-014 -1.39149e-014
rhumerus 17.9165 21.9218 -61.9668
rradius 43.6602
rwrist 0.451225
rhand -14.0036 -392.793
rfingers 7.12502
rthumb 12.1257 297.578
lclavicle -1.19271e-014 -1.39149e-014
lhumerus 47.4811 -26.9367 38.611
lradius 29.7414
lwrist -11.803
lhand -17.2191 -375.568
lfingers 7.12502
lthumb 9.02394 14.219
rfemur -94.5925 -0.843728 28.0526
rtibia 56.4297
rfoot 147.892 7.89082
rtoes 13.2485
lfemur -92.6844 2.26818 -27.2371
ltibia 54.5708
lfoot -173.353 27.5173
ltoes 54.9366
